<?xml version="1.0" encoding="UTF-8" standalone="no"?>
<svg width="50px" height="50px" viewBox="0 0 50 50" version="1.1" xmlns="http://www.w3.org/2000/svg" xmlns:xlink="http://www.w3.org/1999/xlink" xmlns:sketch="http://www.bohemiancoding.com/sketch/ns">
    <!-- Generator: Sketch 3.5.1 (25234) - http://www.bohemiancoding.com/sketch -->
    <title>dribbble_L</title>
    <desc>Created with Sketch.</desc>
    <defs></defs>
    <g id="testtt" stroke="none" stroke-width="1" fill="none" fill-rule="evenodd" sketch:type="MSPage">
        <path d="M25,50 C38.8071194,50 50,38.8071194 50,25 C50,11.1928806 38.8071194,0 25,0 C11.1928806,0 0,11.1928806 0,25 C0,38.8071194 11.1928806,50 25,50 Z M25,48 C37.7025499,48 48,37.7025499 48,25 C48,12.2974501 37.7025499,2 25,2 C12.2974501,2 2,12.2974501 2,25 C2,37.7025499 12.2974501,48 25,48 Z M36.2282934,15.9016487 C38.2602317,18.4622222 39.4904402,21.7235842 39.5225019,25.2749343 C39.0415753,25.1699881 34.2185946,24.1610514 29.3646641,24.7907288 C29.2621776,24.5330466 29.1576525,24.2742174 29.0501622,24.0140502 C28.7473359,23.2803823 28.4218996,22.5514934 28.0825637,21.8346476 C33.4761699,19.5632975 35.920834,16.3308005 36.2282934,15.9016487 Z M24.9362471,10.3698925 C28.6428108,10.3698925 32.0304247,11.8041577 34.6066718,14.1617204 C34.3442471,14.5470968 32.1481081,17.5916846 26.9609575,19.5971326 C24.5704093,15.0668578 21.9209575,11.3451852 21.5176834,10.7883393 C22.6146409,10.5155556 23.7592278,10.3698925 24.9362471,10.3698925 Z M18.7340541,11.7997611 C19.11861,12.3437993 21.7254363,16.0698686 24.1426718,20.5018877 C17.318888,22.3712306 11.308695,22.3442772 10.6561544,22.3352927 C11.6020695,17.6660454 14.6527568,13.7853286 18.7340541,11.7997611 Z M10.3479537,25.4171565 C10.3479537,25.2632736 10.3509189,25.1101553 10.3553668,24.9574194 C10.9938224,24.9708005 18.0629807,25.0648507 25.3482317,22.8160573 C25.7659614,23.6590681 26.1647876,24.5146953 26.5309961,25.3695579 C26.3380695,25.4255675 26.1460695,25.4852091 25.9561081,25.5486738 C18.4323398,28.0570609 14.428695,34.8946237 14.0982548,35.4780406 C11.7683089,32.8104182 10.3479537,29.281816 10.3479537,25.4171565 Z M24.9362471,40.4642294 C21.5636448,40.4642294 18.4553205,39.2773238 15.9819305,37.2879331 C16.2443552,36.7341458 19.1981158,30.8485544 27.4263166,27.891135 C27.4583784,27.8796655 27.4904402,27.8687694 27.5225019,27.8576822 C29.5705637,33.3473835 30.4175135,37.9481959 30.6345328,39.2683393 C28.8829961,40.037945 26.9568803,40.4642294 24.9362471,40.4642294 Z M33.087166,37.8908483 C32.9376062,36.9753883 32.1610811,32.5707049 30.2531274,27.1624373 C34.8246178,26.4075508 38.8408649,27.6432019 39.3399537,27.8054958 C38.6896371,31.9924492 36.3598764,35.608411 33.087166,37.8908483 Z" id="dribbble_L" fill="#464646" sketch:type="MSShapeGroup"></path>
    </g>
</svg>