<?xml version="1.0" encoding="UTF-8" standalone="no"?>
<svg width="50px" height="50px" viewBox="0 0 50 50" version="1.1" xmlns="http://www.w3.org/2000/svg" xmlns:xlink="http://www.w3.org/1999/xlink" xmlns:sketch="http://www.bohemiancoding.com/sketch/ns">
    <!-- Generator: Sketch 3.5.1 (25234) - http://www.bohemiancoding.com/sketch -->
    <title>email_L</title>
    <desc>Created with Sketch.</desc>
    <defs></defs>
    <g id="testtt" stroke="none" stroke-width="1" fill="none" fill-rule="evenodd" sketch:type="MSPage">
        <path d="M25,50 C38.8071194,50 50,38.8071194 50,25 C50,11.1928806 38.8071194,0 25,0 C11.1928806,0 0,11.1928806 0,25 C0,38.8071194 11.1928806,50 25,50 Z M25,48 C37.7025499,48 48,37.7025499 48,25 C48,12.2974501 37.7025499,2 25,2 C12.2974501,2 2,12.2974501 2,25 C2,37.7025499 12.2974501,48 25,48 Z M10.953125,15.9828601 L25.0433626,29.1036429 L39,15.9828601 L10.953125,15.9828601 Z M10,17.8924516 L17.7980485,25.0503195 L10,32.0727084 L10,17.8924516 Z M40.0000005,17.7874361 L40,32.0727079 L31.9885144,25.0306728 L40.0000005,17.7874361 Z M30.6617544,26.2216489 L25.0110186,31.4870732 L19.2747391,26.2216489 L10.9813345,34 L39.0407026,34 L30.6617544,26.2216489 Z" id="email_L" fill="#464646" sketch:type="MSShapeGroup"></path>
    </g>
</svg>