<?xml version="1.0" encoding="UTF-8" standalone="no"?>
<svg width="980px" height="592px" viewBox="0 0 980 592" version="1.1" xmlns="http://www.w3.org/2000/svg" xmlns:xlink="http://www.w3.org/1999/xlink" xmlns:sketch="http://www.bohemiancoding.com/sketch/ns">
    <!-- Generator: Sketch 3.3.3 (12072) - http://www.bohemiancoding.com/sketch -->
    <title>Group</title>
    <desc>Created with Sketch.</desc>
    <defs></defs>
    <g id="firestation" stroke="none" stroke-width="1" fill="none" fill-rule="evenodd" sketch:type="MSPage">
        <g id="firehouse" sketch:type="MSArtboardGroup">
            <g id="Group" sketch:type="MSLayerGroup" transform="translate(-4.000000, -18.000000)">
                <rect id="Rectangle-172" fill="#A5DBE5" sketch:type="MSShapeGroup" x="4" y="18" width="980" height="592"></rect>
                <g id="moln2-copy-6" transform="translate(740.000000, 141.000000)" fill="#FFFFFF" sketch:type="MSShapeGroup">
                    <path d="M140.546648,29.2944145 C138.484365,14.7850831 125.657199,3.61118509 110.141145,3.61118509 C102.829989,3.61118509 96.1158439,6.09211361 90.8436196,10.2339112 C82.8608402,3.84394433 72.5927165,0 61.3901465,0 C36.14569,0 15.6463955,19.51973 15.3507747,43.7068944 C6.17421062,48.8576719 0,58.4866672 0,69.5153129 C0,85.9691331 13.7426524,99.3075899 30.6950732,99.3075899 C35.8783334,99.3075899 40.7615279,98.0606424 45.0435911,95.8589583 L45.0435911,95.8589583 C52.4084847,107.59948 66.6707029,115.557923 83.057257,115.557923 C97.5271202,115.557923 110.340539,109.352353 118.211112,99.8168142 C123.202015,101.811684 128.717429,102.918775 134.516644,102.918775 C156.953672,102.918775 175.142477,86.346753 175.142477,65.9041278 C175.142477,47.3283402 160.12402,31.9485011 140.546648,29.2944145 Z" id="Oval-43"></path>
                </g>
                <g id="moln2-copy-8" transform="translate(800.000000, 351.000000)" fill="#FFFFFF" sketch:type="MSShapeGroup">
                    <path d="M140.546648,29.2944145 C138.484365,14.7850831 125.657199,3.61118509 110.141145,3.61118509 C102.829989,3.61118509 96.1158439,6.09211361 90.8436196,10.2339112 C82.8608402,3.84394433 72.5927165,0 61.3901465,0 C36.14569,0 15.6463955,19.51973 15.3507747,43.7068944 C6.17421062,48.8576719 0,58.4866672 0,69.5153129 C0,85.9691331 13.7426524,99.3075899 30.6950732,99.3075899 C35.8783334,99.3075899 40.7615279,98.0606424 45.0435911,95.8589583 L45.0435911,95.8589583 C52.4084847,107.59948 66.6707029,115.557923 83.057257,115.557923 C97.5271202,115.557923 110.340539,109.352353 118.211112,99.8168142 C123.202015,101.811684 128.717429,102.918775 134.516644,102.918775 C156.953672,102.918775 175.142477,86.346753 175.142477,65.9041278 C175.142477,47.3283402 160.12402,31.9485011 140.546648,29.2944145 Z" id="Oval-43"></path>
                </g>
                <g id="moln2-copy-7" transform="translate(300.000000, 321.000000)" fill="#FFFFFF" sketch:type="MSShapeGroup">
                    <path d="M140.546648,29.2944145 C138.484365,14.7850831 125.657199,3.61118509 110.141145,3.61118509 C102.829989,3.61118509 96.1158439,6.09211361 90.8436196,10.2339112 C82.8608402,3.84394433 72.5927165,0 61.3901465,0 C36.14569,0 15.6463955,19.51973 15.3507747,43.7068944 C6.17421062,48.8576719 0,58.4866672 0,69.5153129 C0,85.9691331 13.7426524,99.3075899 30.6950732,99.3075899 C35.8783334,99.3075899 40.7615279,98.0606424 45.0435911,95.8589583 L45.0435911,95.8589583 C52.4084847,107.59948 66.6707029,115.557923 83.057257,115.557923 C97.5271202,115.557923 110.340539,109.352353 118.211112,99.8168142 C123.202015,101.811684 128.717429,102.918775 134.516644,102.918775 C156.953672,102.918775 175.142477,86.346753 175.142477,65.9041278 C175.142477,47.3283402 160.12402,31.9485011 140.546648,29.2944145 Z" id="Oval-43"></path>
                </g>
                <polygon id="Triangle-2-Copy" fill="#22270A" sketch:type="MSShapeGroup" transform="translate(778.740245, 293.542826) scale(-1, 1) rotate(157.000000) translate(-778.740245, -293.542826) " points="755.413478 260.204836 915.051539 326.880816 642.42895 280.686453 "></polygon>
                <polygon id="Triangle-2" fill="#222709" sketch:type="MSShapeGroup" transform="translate(520.501407, 293.426713) rotate(157.000000) translate(-520.501407, -293.426713) " points="497.17464 260.088723 656.812701 326.764703 384.190112 280.57034 "></polygon>
                <rect id="Rectangle-47" opacity="0.736298974" fill="#7E3F38" sketch:type="MSShapeGroup" x="796" y="220" width="46" height="27"></rect>
                <rect id="Rectangle-5" fill="#7E3F38" sketch:type="MSShapeGroup" x="411" y="450" width="478" height="150"></rect>
                <path d="M721.371999,509 C716.610408,480.787337 685.3518,459 647.5,459 C609.6482,459 578.389592,480.787337 573.628001,509 L721.371999,509 Z" id="Oval-7" stroke="#060606" stroke-width="3" sketch:type="MSShapeGroup"></path>
                <path d="M871.371999,509 C866.610408,480.787337 835.3518,459 797.5,459 C759.6482,459 728.389592,480.787337 723.628001,509 L871.371999,509 Z" id="Oval-7-Copy" stroke="#060606" stroke-width="3" sketch:type="MSShapeGroup"></path>
                <path d="M571.371999,509 C566.610408,480.787337 535.3518,459 497.5,459 C459.6482,459 428.389592,480.787337 423.628001,509 L571.371999,509 Z" id="Oval-7-Copy-2" stroke="#060606" stroke-width="3" sketch:type="MSShapeGroup"></path>
                <path d="M827.011059,229.193548 L827,229.193548 L827,247 L840,247 L840,229.193548 L839.988941,229.193548 C839.791028,225.739337 836.961497,223 833.5,223 C830.038503,223 827.208972,225.739337 827.011059,229.193548 Z" id="Rectangle-48" fill="#2E2E2E" sketch:type="MSShapeGroup"></path>
                <path d="M829.007656,230.16129 L829,230.16129 L829,245 L838,245 L838,230.16129 L837.992344,230.16129 C837.855327,227.282781 835.896421,225 833.5,225 C831.103579,225 829.144673,227.282781 829.007656,230.16129 Z" id="Rectangle-48-Copy-6" fill="#FFFFFF" sketch:type="MSShapeGroup"></path>
                <path d="M812.011059,229.193548 L812,229.193548 L812,247 L825,247 L825,229.193548 L824.988941,229.193548 C824.791028,225.739337 821.961497,223 818.5,223 C815.038503,223 812.208972,225.739337 812.011059,229.193548 Z" id="Rectangle-48-Copy" fill="#2E2E2E" sketch:type="MSShapeGroup"></path>
                <path d="M797.011059,229.193548 L797,229.193548 L797,247 L810,247 L810,229.193548 L809.988941,229.193548 C809.791028,225.739337 806.961497,223 803.5,223 C800.038503,223 797.208972,225.739337 797.011059,229.193548 Z" id="Rectangle-48-Copy-2" fill="#2E2E2E" sketch:type="MSShapeGroup"></path>
                <path d="M814.007656,230.16129 L814,230.16129 L814,245 L823,245 L823,230.16129 L822.992344,230.16129 C822.855327,227.282781 820.896421,225 818.5,225 C816.103579,225 814.144673,227.282781 814.007656,230.16129 Z" id="Rectangle-48-Copy-7" fill="#FFFFFF" sketch:type="MSShapeGroup"></path>
                <path d="M799.007656,230.16129 L799,230.16129 L799,245 L808,245 L808,230.16129 L807.992344,230.16129 C807.855327,227.282781 805.896421,225 803.5,225 C801.103579,225 799.144673,227.282781 799.007656,230.16129 Z" id="Rectangle-48-Copy-8" fill="#FFFFFF" sketch:type="MSShapeGroup"></path>
                <rect id="Rectangle-46" fill="#402325" sketch:type="MSShapeGroup" x="796" y="208" width="46" height="12"></rect>
                <rect id="Rectangle-44" fill="#C7C6C6" sketch:type="MSShapeGroup" x="796" y="247" width="47" height="4"></rect>
                <rect id="Rectangle-45" fill="#402325" sketch:type="MSShapeGroup" x="796" y="251" width="46" height="10"></rect>
                <rect id="Rectangle-43" fill="#753F41" sketch:type="MSShapeGroup" x="796" y="261" width="46" height="39"></rect>
                <path d="M774,232.55814 L783,208 L784,252 L774,249.953488 L774,232.55814 Z" id="Rectangle-42" fill="#434242" sketch:type="MSShapeGroup"></path>
                <path d="M768.465445,194.741086 L776.465445,194.741086 L773.962597,232.496721 L768.465445,234.124563 L768.465445,194.741086 Z" id="Rectangle-40" fill="#373737" sketch:type="MSShapeGroup" transform="translate(772.465445, 214.432825) rotate(19.000000) translate(-772.465445, -214.432825) "></path>
                <path d="M773.412833,199.622973 L779.832833,199.622973 L779.832833,231.751166 L773.412833,233.976695 L773.412833,199.622973 Z" id="Rectangle-40-Copy" fill="#5D5D5D" sketch:type="MSShapeGroup" transform="translate(776.622833, 216.799834) rotate(21.000000) translate(-776.622833, -216.799834) "></path>
                <rect id="Rectangle-36" fill="#593736" sketch:type="MSShapeGroup" x="783" y="208" width="13" height="75"></rect>
                <rect id="Rectangle-36-Copy" fill="#593736" sketch:type="MSShapeGroup" x="842" y="208" width="13" height="96"></rect>
                <path d="M779,200 L861,200 L856.950617,208 L783.049383,208 L779,200 Z" id="Rectangle-38" fill="#5D5D5D" sketch:type="MSShapeGroup"></path>
                <path d="M775,194 L865,194 L860.555556,201 L779.444444,201 L775,194 Z" id="Rectangle-38-Copy" fill="#373737" sketch:type="MSShapeGroup"></path>
                <path d="M763,246 L808,257 L728,257 L763,246 Z" id="Rectangle-34" fill="#373737" sketch:type="MSShapeGroup"></path>
                <path d="M523,246 L568,257 L488,257 L523,246 Z" id="Rectangle-34-Copy" fill="#373737" sketch:type="MSShapeGroup" transform="translate(528.000000, 251.500000) scale(-1, 1) translate(-528.000000, -251.500000) "></path>
                <path d="M561.40164,264.116252 L569.340185,256.620625 L571.40164,285.658946 L562.997157,287.955809 L561.40164,264.116252 Z" id="Rectangle-28" fill="#4F302E" sketch:type="MSShapeGroup" transform="translate(566.401640, 272.288217) rotate(-7.000000) translate(-566.401640, -272.288217) "></path>
                <path d="M723.913482,264.486139 L729.883942,257.155116 L731.434331,285.555755 L725.113446,287.802179 L723.913482,264.486139 Z" id="Rectangle-28-Copy" fill="#4F302E" sketch:type="MSShapeGroup" transform="translate(727.673907, 272.478647) scale(-1, 1) rotate(-7.000000) translate(-727.673907, -272.478647) "></path>
                <path d="M492,265 L497,265 L497,272 L495,269 L492,265 Z" id="Rectangle-27" fill="#171717" sketch:type="MSShapeGroup"></path>
                <path d="M798,265 L803,265 L803,272 L801,269 L798,265 Z" id="Rectangle-27-Copy" fill="#171717" sketch:type="MSShapeGroup" transform="translate(800.500000, 268.500000) scale(-1, 1) translate(-800.500000, -268.500000) "></path>
                <path d="M558,264 L563,290 L558,305 L558,264 Z" id="Rectangle-18" fill="#434242" sketch:type="MSShapeGroup"></path>
                <path d="M732,265 L737,291 L732,306 L732,265 Z" id="Rectangle-18-Copy" fill="#434242" sketch:type="MSShapeGroup" transform="translate(734.500000, 285.500000) scale(-1, 1) translate(-734.500000, -285.500000) "></path>
                <rect id="Rectangle-16" fill="#753F41" sketch:type="MSShapeGroup" x="497" y="265" width="61" height="41"></rect>
                <rect id="Rectangle-16-Copy" fill="#753F41" sketch:type="MSShapeGroup" x="737" y="265" width="61" height="41"></rect>
                <path d="M361,315 L937,315 L932,323 L367,323 L361,315 Z" id="Rectangle-15" fill="#151C08" sketch:type="MSShapeGroup"></path>
                <path d="M537.379443,285.87957 L663.564585,284.359729 L655.787666,296.793272 L553.608215,296.793272 L537.379443,285.87957 Z" id="Rectangle-13" fill="#4A4848" sketch:type="MSShapeGroup" transform="translate(600.472014, 290.576500) rotate(327.000000) translate(-600.472014, -290.576500) "></path>
                <path d="M635.448285,285.836131 L761.539837,284.335819 L753.856508,296.749832 L651.677057,296.749832 L635.448285,285.836131 Z" id="Rectangle-13-Copy" fill="#4A4848" sketch:type="MSShapeGroup" transform="translate(698.494061, 290.542826) scale(-1, 1) rotate(327.000000) translate(-698.494061, -290.542826) "></path>
                <rect id="Rectangle-12" fill="#000000" sketch:type="MSShapeGroup" x="367" y="323" width="565" height="5"></rect>
                <path d="M370,328 L930,328 L916,340 L384,340 L370,328 Z" id="Rectangle-11" fill="#262626" sketch:type="MSShapeGroup"></path>
                <rect id="Rectangle-8" fill="#7E3F38" sketch:type="MSShapeGroup" x="737" y="340" width="173" height="11"></rect>
                <rect id="Rectangle-8-Copy" fill="#7E3F38" sketch:type="MSShapeGroup" x="390" y="340" width="173" height="11"></rect>
                <rect id="Rectangle-3" fill="#6F362F" sketch:type="MSShapeGroup" x="390" y="351" width="21" height="249"></rect>
                <rect id="Rectangle-3-Copy" fill="#6F362F" sketch:type="MSShapeGroup" x="889" y="351" width="21" height="249"></rect>
                <rect id="Rectangle-10" fill="#030303" sketch:type="MSShapeGroup" x="411" y="447" width="478" height="4"></rect>
                <polygon id="Triangle-1" fill="#7E3F38" sketch:type="MSShapeGroup" points="650 265 734 320 566 320 "></polygon>
                <polygon id="Triangle-1-Copy" stroke="#202020" stroke-width="2" sketch:type="MSShapeGroup" points="650.5 271 721 317 580 317 "></polygon>
                <rect id="Rectangle-7" fill="#3C292B" sketch:type="MSShapeGroup" x="563" y="340" width="174" height="11"></rect>
                <rect id="Rectangle-6" fill="#733936" sketch:type="MSShapeGroup" x="566" y="351" width="168" height="96"></rect>
                <rect id="Rectangle-5" fill="#4F302E" sketch:type="MSShapeGroup" x="411" y="351" width="155" height="96"></rect>
                <rect id="Rectangle-5-Copy" fill="#4F302E" sketch:type="MSShapeGroup" x="734" y="351" width="155" height="96"></rect>
                <rect id="Rectangle-20" fill="#2D2D2D" sketch:type="MSShapeGroup" x="515" y="277" width="27" height="26"></rect>
                <rect id="Rectangle-20-Copy" fill="#2D2D2D" sketch:type="MSShapeGroup" x="755" y="277" width="27" height="26"></rect>
                <rect id="Rectangle-22" fill="#D8D8D8" sketch:type="MSShapeGroup" x="518" y="281" width="21" height="8"></rect>
                <rect id="Rectangle-22-Copy" fill="#D8D8D8" sketch:type="MSShapeGroup" x="518" y="292" width="21" height="8"></rect>
                <rect id="Rectangle-22-Copy-3" fill="#D8D8D8" sketch:type="MSShapeGroup" x="758" y="281" width="21" height="8"></rect>
                <rect id="Rectangle-22-Copy-2" fill="#D8D8D8" sketch:type="MSShapeGroup" x="758" y="292" width="21" height="8"></rect>
                <path d="M488,257 L568,257 L562.936709,265 L492.050633,265 L488,257 Z" id="Rectangle-26" fill="#4F302E" sketch:type="MSShapeGroup"></path>
                <path d="M727,257 L807,257 L801.936709,265 L731.050633,265 L727,257 Z" id="Rectangle-26-Copy" fill="#4F302E" sketch:type="MSShapeGroup" transform="translate(767.000000, 261.000000) scale(-1, 1) translate(-767.000000, -261.000000) "></path>
                <path d="M560.826107,264.165687 L566.074597,265.290442 L565.395933,288.82571 L560.074181,289.804422 L560.826107,264.165687 Z" id="Rectangle-29" fill="#000000" sketch:type="MSShapeGroup" transform="translate(563.074389, 276.985054) rotate(-13.000000) translate(-563.074389, -276.985054) "></path>
                <path d="M729.826107,264.165687 L735.074597,265.290442 L734.395933,288.82571 L729.074181,289.804422 L729.826107,264.165687 Z" id="Rectangle-29-Copy" fill="#000000" sketch:type="MSShapeGroup" transform="translate(732.074389, 276.985054) scale(-1, 1) rotate(-13.000000) translate(-732.074389, -276.985054) "></path>
                <g id="block" transform="translate(425.000000, 501.000000)" fill="#7E3F38" sketch:type="MSShapeGroup">
                    <rect id="Rectangle-101" x="0" y="0" width="20" height="22" rx="9"></rect>
                    <rect id="Rectangle-101-Copy" x="125" y="0" width="20" height="22" rx="9"></rect>
                    <rect id="Rectangle-101-Copy-2" x="150" y="0" width="20" height="22" rx="9"></rect>
                    <rect id="Rectangle-101-Copy-3" x="275" y="0" width="20" height="22" rx="9"></rect>
                    <rect id="Rectangle-101-Copy-4" x="300" y="0" width="20" height="22" rx="9"></rect>
                    <rect id="Rectangle-101-Copy-5" x="425" y="0" width="20" height="22" rx="9"></rect>
                </g>
                <path d="M745.092726,507.258065 L745,507.258065 L745,600 L854,600 L854,507.258065 L853.907274,507.258065 C852.247853,489.26738 828.523321,475 799.5,475 C770.476679,475 746.752147,489.26738 745.092726,507.258065 Z" id="Rectangle-48-Copy-3" fill="#26350E" sketch:type="MSShapeGroup"></path>
                <path d="M594.092726,507.258065 L594,507.258065 L594,600 L703,600 L703,507.258065 L702.907274,507.258065 C701.247853,489.26738 677.523321,475 648.5,475 C619.476679,475 595.752147,489.26738 594.092726,507.258065 Z" id="Rectangle-48-Copy-4" fill="#26350E" sketch:type="MSShapeGroup"></path>
                <path d="M444.092726,507.258065 L444,507.258065 L444,600 L553,600 L553,507.258065 L552.907274,507.258065 C551.247853,489.26738 527.523321,475 498.5,475 C469.476679,475 445.752147,489.26738 444.092726,507.258065 Z" id="Rectangle-48-Copy-5" fill="#26350E" sketch:type="MSShapeGroup"></path>
                <g id="dörr-fönster" transform="translate(751.000000, 498.000000)" sketch:type="MSShapeGroup">
                    <rect id="Rectangle-54" fill="#1D1D1D" x="52" y="31" width="20" height="11" rx="2"></rect>
                    <rect id="Rectangle-54-Copy" fill="#1D1D1D" x="79" y="31" width="20" height="11" rx="2"></rect>
                    <rect id="Rectangle-54-Copy-2" fill="#1D1D1D" x="26" y="31" width="20" height="11" rx="2"></rect>
                    <rect id="Rectangle-54-Copy-3" fill="#1D1D1D" x="0" y="31" width="20" height="11" rx="2"></rect>
                    <rect id="Rectangle-54-Copy-7" fill="#101B00" x="52" y="47" width="20" height="11" rx="2"></rect>
                    <rect id="Rectangle-54-Copy-6" fill="#101B00" x="79" y="47" width="20" height="11" rx="2"></rect>
                    <rect id="Rectangle-54-Copy-5" fill="#101B00" x="26" y="47" width="20" height="11" rx="2"></rect>
                    <rect id="Rectangle-54-Copy-4" fill="#101B00" x="0" y="47" width="20" height="11" rx="2"></rect>
                    <rect id="Rectangle-54-Copy-11" fill="#101B00" x="52" y="63" width="20" height="11" rx="2"></rect>
                    <rect id="Rectangle-54-Copy-10" fill="#101B00" x="79" y="63" width="20" height="11" rx="2"></rect>
                    <rect id="Rectangle-54-Copy-9" fill="#101B00" x="26" y="63" width="20" height="11" rx="2"></rect>
                    <rect id="Rectangle-54-Copy-8" fill="#101B00" x="0" y="63" width="20" height="11" rx="2"></rect>
                    <rect id="Rectangle-54-Copy-15" fill="#101B00" x="52" y="79" width="20" height="11" rx="2"></rect>
                    <rect id="Rectangle-54-Copy-14" fill="#101B00" x="79" y="79" width="20" height="11" rx="2"></rect>
                    <rect id="Rectangle-54-Copy-13" fill="#101B00" x="26" y="79" width="20" height="11" rx="2"></rect>
                    <rect id="Rectangle-54-Copy-12" fill="#101B00" x="0" y="79" width="20" height="11" rx="2"></rect>
                    <rect id="Rectangle-54-Copy-19" fill="#101B00" x="52" y="15" width="20" height="11" rx="2"></rect>
                    <rect id="Rectangle-54-Copy-18" fill="#101B00" x="79" y="15" width="20" height="11" rx="2"></rect>
                    <rect id="Rectangle-54-Copy-17" fill="#101B00" x="26" y="15" width="20" height="11" rx="2"></rect>
                    <rect id="Rectangle-54-Copy-16" fill="#101B00" x="0" y="15" width="20" height="11" rx="2"></rect>
                    <rect id="Rectangle-54-Copy-23" fill="#101B00" x="52" y="0" width="20" height="11" rx="2"></rect>
                    <rect id="Rectangle-54-Copy-21" fill="#101B00" x="26" y="0" width="20" height="11" rx="2"></rect>
                </g>
                <g id="dörr-fönster-copy-2" transform="translate(599.000000, 498.000000)" sketch:type="MSShapeGroup">
                    <rect id="Rectangle-54" fill="#1D1D1D" x="52" y="31" width="20" height="11" rx="2"></rect>
                    <rect id="Rectangle-54-Copy" fill="#1D1D1D" x="79" y="31" width="20" height="11" rx="2"></rect>
                    <rect id="Rectangle-54-Copy-2" fill="#1D1D1D" x="26" y="31" width="20" height="11" rx="2"></rect>
                    <rect id="Rectangle-54-Copy-3" fill="#1D1D1D" x="0" y="31" width="20" height="11" rx="2"></rect>
                    <rect id="Rectangle-54-Copy-20" fill="#757575" x="2" y="33" width="16" height="7" rx="1"></rect>
                    <rect id="Rectangle-54-Copy-22" fill="#757575" x="28" y="33" width="16" height="7" rx="1"></rect>
                    <rect id="Rectangle-54-Copy-24" fill="#757575" x="54" y="33" width="16" height="7" rx="1"></rect>
                    <rect id="Rectangle-54-Copy-25" fill="#757575" x="81" y="33" width="16" height="7" rx="1"></rect>
                    <rect id="Rectangle-54-Copy-26" fill="#757575" x="154" y="33" width="16" height="7" rx="1"></rect>
                    <rect id="Rectangle-54-Copy-27" fill="#757575" x="180" y="33" width="16" height="7" rx="1"></rect>
                    <rect id="Rectangle-54-Copy-28" fill="#757575" x="206" y="33" width="16" height="7" rx="1"></rect>
                    <rect id="Rectangle-54-Copy-29" fill="#757575" x="233" y="33" width="16" height="7" rx="1"></rect>
                    <rect id="Rectangle-54-Copy-7" fill="#101B00" x="52" y="47" width="20" height="11" rx="2"></rect>
                    <rect id="Rectangle-54-Copy-6" fill="#101B00" x="79" y="47" width="20" height="11" rx="2"></rect>
                    <rect id="Rectangle-54-Copy-5" fill="#101B00" x="26" y="47" width="20" height="11" rx="2"></rect>
                    <rect id="Rectangle-54-Copy-4" fill="#101B00" x="0" y="47" width="20" height="11" rx="2"></rect>
                    <rect id="Rectangle-54-Copy-11" fill="#101B00" x="52" y="63" width="20" height="11" rx="2"></rect>
                    <rect id="Rectangle-54-Copy-10" fill="#101B00" x="79" y="63" width="20" height="11" rx="2"></rect>
                    <rect id="Rectangle-54-Copy-9" fill="#101B00" x="26" y="63" width="20" height="11" rx="2"></rect>
                    <rect id="Rectangle-54-Copy-8" fill="#101B00" x="0" y="63" width="20" height="11" rx="2"></rect>
                    <rect id="Rectangle-54-Copy-15" fill="#101B00" x="52" y="79" width="20" height="11" rx="2"></rect>
                    <rect id="Rectangle-54-Copy-14" fill="#101B00" x="79" y="79" width="20" height="11" rx="2"></rect>
                    <rect id="Rectangle-54-Copy-13" fill="#101B00" x="26" y="79" width="20" height="11" rx="2"></rect>
                    <rect id="Rectangle-54-Copy-12" fill="#101B00" x="0" y="79" width="20" height="11" rx="2"></rect>
                    <rect id="Rectangle-54-Copy-19" fill="#101B00" x="52" y="15" width="20" height="11" rx="2"></rect>
                    <rect id="Rectangle-54-Copy-18" fill="#101B00" x="79" y="15" width="20" height="11" rx="2"></rect>
                    <rect id="Rectangle-54-Copy-17" fill="#101B00" x="26" y="15" width="20" height="11" rx="2"></rect>
                    <rect id="Rectangle-54-Copy-16" fill="#101B00" x="0" y="15" width="20" height="11" rx="2"></rect>
                    <rect id="Rectangle-54-Copy-23" fill="#101B00" x="52" y="0" width="20" height="11" rx="2"></rect>
                    <rect id="Rectangle-54-Copy-21" fill="#101B00" x="26" y="0" width="20" height="11" rx="2"></rect>
                </g>
                <g id="dörr-fönster-copy" transform="translate(449.000000, 498.000000)" sketch:type="MSShapeGroup">
                    <rect id="Rectangle-54" fill="#1D1D1D" x="52" y="31" width="20" height="11" rx="2"></rect>
                    <rect id="Rectangle-54-Copy" fill="#1D1D1D" x="79" y="31" width="20" height="11" rx="2"></rect>
                    <rect id="Rectangle-54-Copy-2" fill="#1D1D1D" x="26" y="31" width="20" height="11" rx="2"></rect>
                    <rect id="Rectangle-54-Copy-3" fill="#1D1D1D" x="0" y="31" width="20" height="11" rx="2"></rect>
                    <rect id="Rectangle-54-Copy-7" fill="#101B00" x="52" y="47" width="20" height="11" rx="2"></rect>
                    <rect id="Rectangle-54-Copy-6" fill="#101B00" x="79" y="47" width="20" height="11" rx="2"></rect>
                    <rect id="Rectangle-54-Copy-5" fill="#101B00" x="26" y="47" width="20" height="11" rx="2"></rect>
                    <rect id="Rectangle-54-Copy-4" fill="#101B00" x="0" y="47" width="20" height="11" rx="2"></rect>
                    <rect id="Rectangle-54-Copy-11" fill="#101B00" x="52" y="63" width="20" height="11" rx="2"></rect>
                    <rect id="Rectangle-54-Copy-10" fill="#101B00" x="79" y="63" width="20" height="11" rx="2"></rect>
                    <rect id="Rectangle-54-Copy-9" fill="#101B00" x="26" y="63" width="20" height="11" rx="2"></rect>
                    <rect id="Rectangle-54-Copy-8" fill="#101B00" x="0" y="63" width="20" height="11" rx="2"></rect>
                    <rect id="Rectangle-54-Copy-15" fill="#101B00" x="52" y="79" width="20" height="11" rx="2"></rect>
                    <rect id="Rectangle-54-Copy-14" fill="#101B00" x="79" y="79" width="20" height="11" rx="2"></rect>
                    <rect id="Rectangle-54-Copy-13" fill="#101B00" x="26" y="79" width="20" height="11" rx="2"></rect>
                    <rect id="Rectangle-54-Copy-12" fill="#101B00" x="0" y="79" width="20" height="11" rx="2"></rect>
                    <rect id="Rectangle-54-Copy-19" fill="#101B00" x="52" y="15" width="20" height="11" rx="2"></rect>
                    <rect id="Rectangle-54-Copy-18" fill="#101B00" x="79" y="15" width="20" height="11" rx="2"></rect>
                    <rect id="Rectangle-54-Copy-17" fill="#101B00" x="26" y="15" width="20" height="11" rx="2"></rect>
                    <rect id="Rectangle-54-Copy-16" fill="#101B00" x="0" y="15" width="20" height="11" rx="2"></rect>
                    <rect id="Rectangle-54-Copy-23" fill="#101B00" x="52" y="0" width="20" height="11" rx="2"></rect>
                    <rect id="Rectangle-54-Copy-21" fill="#101B00" x="26" y="0" width="20" height="11" rx="2"></rect>
                </g>
                <rect id="Rectangle-54-Copy-30" fill="#757575" sketch:type="MSShapeGroup" x="530" y="531" width="16" height="7" rx="1"></rect>
                <rect id="Rectangle-54-Copy-31" fill="#757575" sketch:type="MSShapeGroup" x="503" y="531" width="16" height="7" rx="1"></rect>
                <rect id="Rectangle-54-Copy-32" fill="#757575" sketch:type="MSShapeGroup" x="477" y="531" width="16" height="7" rx="1"></rect>
                <rect id="Rectangle-54-Copy-33" fill="#757575" sketch:type="MSShapeGroup" x="451" y="531" width="16" height="7" rx="1"></rect>
                <g id="ÖVER-FÖNSTER" transform="translate(610.000000, 363.000000)" sketch:type="MSShapeGroup">
                    <rect id="Rectangle-116" fill="#373737" x="4" y="0" width="30" height="67"></rect>
                    <rect id="Rectangle-117" fill="#FFFFFF" x="8" y="4" width="22" height="28"></rect>
                    <rect id="Rectangle-117-Copy" fill="#FFFFFF" x="8" y="36" width="22" height="28"></rect>
                    <rect id="Rectangle-116-Copy" fill="#373737" x="49" y="0" width="30" height="67"></rect>
                    <rect id="Rectangle-117-Copy-3" fill="#FFFFFF" x="53" y="4" width="22" height="28"></rect>
                    <rect id="Rectangle-117-Copy-2" fill="#FFFFFF" x="53" y="36" width="22" height="28"></rect>
                    <rect id="Rectangle-122" fill="#C7C6C6" x="0" y="67" width="83" height="5"></rect>
                </g>
                <g id="ÖVER-FÖNSTER-Copy" transform="translate(748.000000, 363.000000)" sketch:type="MSShapeGroup">
                    <rect id="Rectangle-116" fill="#373737" x="3" y="0" width="30" height="67"></rect>
                    <rect id="Rectangle-117" fill="#FFFFFF" x="7" y="4" width="22" height="28"></rect>
                    <rect id="Rectangle-117-Copy" fill="#FFFFFF" x="7" y="36" width="22" height="28"></rect>
                    <rect id="Rectangle-116-Copy" fill="#373737" x="48" y="0" width="30" height="67"></rect>
                    <rect id="Rectangle-117-Copy-3" fill="#FFFFFF" x="52" y="4" width="22" height="28"></rect>
                    <rect id="Rectangle-117-Copy-2" fill="#FFFFFF" x="52" y="36" width="22" height="28"></rect>
                    <rect id="Rectangle-116-Copy-2" fill="#373737" x="92" y="0" width="30" height="67"></rect>
                    <rect id="Rectangle-117-Copy-5" fill="#FFFFFF" x="96" y="4" width="22" height="28"></rect>
                    <rect id="Rectangle-117-Copy-4" fill="#FFFFFF" x="96" y="36" width="22" height="28"></rect>
                    <rect id="Rectangle-122" fill="#C7C6C6" x="0" y="67" width="126" height="5"></rect>
                </g>
                <g id="ÖVER-FÖNSTER-Copy-2" transform="translate(426.000000, 363.000000)" sketch:type="MSShapeGroup">
                    <rect id="Rectangle-116" fill="#373737" x="3" y="0" width="30" height="67"></rect>
                    <rect id="Rectangle-117" fill="#FFFFFF" x="7" y="4" width="22" height="28"></rect>
                    <rect id="Rectangle-117-Copy" fill="#FFFFFF" x="7" y="36" width="22" height="28"></rect>
                    <rect id="Rectangle-116-Copy" fill="#373737" x="48" y="0" width="30" height="67"></rect>
                    <rect id="Rectangle-117-Copy-3" fill="#FFFFFF" x="52" y="4" width="22" height="28"></rect>
                    <rect id="Rectangle-117-Copy-2" fill="#FFFFFF" x="52" y="36" width="22" height="28"></rect>
                    <rect id="Rectangle-116-Copy-2" fill="#373737" x="92" y="0" width="30" height="67"></rect>
                    <rect id="Rectangle-117-Copy-5" fill="#FFFFFF" x="96" y="4" width="22" height="28"></rect>
                    <rect id="Rectangle-117-Copy-4" fill="#FFFFFF" x="96" y="36" width="22" height="28"></rect>
                    <rect id="Rectangle-122" fill="#C7C6C6" x="0" y="67" width="126" height="5"></rect>
                </g>
                <g id="moln2-copy-3" transform="translate(352.000000, 129.000000)" fill="#FFFFFF" sketch:type="MSShapeGroup">
                    <path d="M140.546648,29.2944145 C138.484365,14.7850831 125.657199,3.61118509 110.141145,3.61118509 C102.829989,3.61118509 96.1158439,6.09211361 90.8436196,10.2339112 C82.8608402,3.84394433 72.5927165,0 61.3901465,0 C36.14569,0 15.6463955,19.51973 15.3507747,43.7068944 C6.17421062,48.8576719 0,58.4866672 0,69.5153129 C0,85.9691331 13.7426524,99.3075899 30.6950732,99.3075899 C35.8783334,99.3075899 40.7615279,98.0606424 45.0435911,95.8589583 L45.0435911,95.8589583 C52.4084847,107.59948 66.6707029,115.557923 83.057257,115.557923 C97.5271202,115.557923 110.340539,109.352353 118.211112,99.8168142 C123.202015,101.811684 128.717429,102.918775 134.516644,102.918775 C156.953672,102.918775 175.142477,86.346753 175.142477,65.9041278 C175.142477,47.3283402 160.12402,31.9485011 140.546648,29.2944145 Z" id="Oval-43"></path>
                </g>
                <g id="moln2-copy-4" transform="translate(462.000000, 119.000000)" fill="#FFFFFF" sketch:type="MSShapeGroup">
                    <path d="M140.546648,29.2944145 C138.484365,14.7850831 125.657199,3.61118509 110.141145,3.61118509 C102.829989,3.61118509 96.1158439,6.09211361 90.8436196,10.2339112 C82.8608402,3.84394433 72.5927165,0 61.3901465,0 C36.14569,0 15.6463955,19.51973 15.3507747,43.7068944 C6.17421062,48.8576719 0,58.4866672 0,69.5153129 C0,85.9691331 13.7426524,99.3075899 30.6950732,99.3075899 C35.8783334,99.3075899 40.7615279,98.0606424 45.0435911,95.8589583 L45.0435911,95.8589583 C52.4084847,107.59948 66.6707029,115.557923 83.057257,115.557923 C97.5271202,115.557923 110.340539,109.352353 118.211112,99.8168142 C123.202015,101.811684 128.717429,102.918775 134.516644,102.918775 C156.953672,102.918775 175.142477,86.346753 175.142477,65.9041278 C175.142477,47.3283402 160.12402,31.9485011 140.546648,29.2944145 Z" id="Oval-43"></path>
                </g>
                <g id="moln2-copy-5" transform="translate(602.000000, 35.000000)" fill="#FFFFFF" sketch:type="MSShapeGroup">
                    <path d="M140.546648,29.2944145 C138.484365,14.7850831 125.657199,3.61118509 110.141145,3.61118509 C102.829989,3.61118509 96.1158439,6.09211361 90.8436196,10.2339112 C82.8608402,3.84394433 72.5927165,0 61.3901465,0 C36.14569,0 15.6463955,19.51973 15.3507747,43.7068944 C6.17421062,48.8576719 0,58.4866672 0,69.5153129 C0,85.9691331 13.7426524,99.3075899 30.6950732,99.3075899 C35.8783334,99.3075899 40.7615279,98.0606424 45.0435911,95.8589583 L45.0435911,95.8589583 C52.4084847,107.59948 66.6707029,115.557923 83.057257,115.557923 C97.5271202,115.557923 110.340539,109.352353 118.211112,99.8168142 C123.202015,101.811684 128.717429,102.918775 134.516644,102.918775 C156.953672,102.918775 175.142477,86.346753 175.142477,65.9041278 C175.142477,47.3283402 160.12402,31.9485011 140.546648,29.2944145 Z" id="Oval-43"></path>
                </g>
                <g id="moln2-copy-9" transform="translate(270.000000, 58.000000) scale(-1, 1) translate(-270.000000, -58.000000) translate(182.000000, 0.000000)" fill="#FFFFFF" sketch:type="MSShapeGroup">
                    <path d="M140.546648,29.2944145 C138.484365,14.7850831 125.657199,3.61118509 110.141145,3.61118509 C102.829989,3.61118509 96.1158439,6.09211361 90.8436196,10.2339112 C82.8608402,3.84394433 72.5927165,0 61.3901465,0 C36.14569,0 15.6463955,19.51973 15.3507747,43.7068944 C6.17421062,48.8576719 0,58.4866672 0,69.5153129 C0,85.9691331 13.7426524,99.3075899 30.6950732,99.3075899 C35.8783334,99.3075899 40.7615279,98.0606424 45.0435911,95.8589583 L45.0435911,95.8589583 C52.4084847,107.59948 66.6707029,115.557923 83.057257,115.557923 C97.5271202,115.557923 110.340539,109.352353 118.211112,99.8168142 C123.202015,101.811684 128.717429,102.918775 134.516644,102.918775 C156.953672,102.918775 175.142477,86.346753 175.142477,65.9041278 C175.142477,47.3283402 160.12402,31.9485011 140.546648,29.2944145 Z" id="Oval-43"></path>
                </g>
                <rect id="Rectangle-171" fill="#666666" sketch:type="MSShapeGroup" x="0" y="599" width="1002" height="12"></rect>
            </g>
        </g>
    </g>
</svg>