<?xml version="1.0" encoding="utf-8"?>
<!-- Generator: Adobe Illustrator 16.0.0, SVG Export Plug-In . SVG Version: 6.00 Build 0)  -->
<!DOCTYPE svg PUBLIC "-//W3C//DTD SVG 1.1//EN" "http://www.w3.org/Graphics/SVG/1.1/DTD/svg11.dtd">
<svg version="1.1" id="Layer_1" xmlns="http://www.w3.org/2000/svg" xmlns:xlink="http://www.w3.org/1999/xlink" x="0px" y="0px"
	 width="1190.55px" height="841.89px" viewBox="0 0 1190.55 841.89" enable-background="new 0 0 1190.55 841.89"
	 xml:space="preserve">
<g>
	<rect x="31.129" y="319.167" fill="none" width="715.262" height="200"/>
	<g>
		<path d="M134.904,371.508h-10.768v-23.196H111.71v23.196h-10.768v-52.188h10.768v21.123h12.425v-21.123h10.768V371.508z
			 M178.395,319.319l-14.497,33.963v18.226H153.13v-18.226l-13.667-33.963h11.596l7.871,21.952l8.282-21.952H178.395z
			 M216.087,335.058c0,10.22-4.835,15.325-14.499,15.325h-7.868v21.125h-11.185v-52.188h19.881
			C211.529,319.319,216.087,324.567,216.087,335.058z M204.902,335.472c0-5.241-1.935-7.868-5.798-7.868h-5.383v14.91h5.797
			C203.103,342.514,204.902,340.17,204.902,335.472z M250.877,371.508h-28.993v-52.188h28.578v8.285h-17.395v12.838h16.153v7.87
			h-16.153v15.326h17.81V371.508z M290.64,371.508h-10.771c-0.278-0.83-0.555-5.386-0.826-13.669c-0.279-5.242-2.901-7.87-7.87-7.87
			h-2.9v21.539h-10.771v-52.188h19.884c8.282,0,12.423,4.556,12.423,13.668c0,7.455-3.313,11.739-9.941,12.839
			c6.35,0.828,9.526,4.284,9.526,10.354C289.395,364.744,289.81,369.85,290.64,371.508z M278.627,334.231
			c0-4.414-1.798-6.627-5.385-6.627h-4.969v14.495h4.969C276.829,342.099,278.627,339.478,278.627,334.231z M328.745,371.508
			h-10.768v-52.188h10.768V371.508z M368.92,357.424c0,9.941-6.075,14.911-18.225,14.911c-11.045,0-16.155-5.656-15.324-16.981
			h10.768c0,6.077,2.07,9.112,6.214,9.112c3.584,0,5.382-1.929,5.382-5.798c0-2.486-3.591-5.935-10.768-10.355
			c-7.184-4.412-10.769-9.384-10.769-14.911c0-9.94,5.656-14.91,16.982-14.91c10.768,0,15.738,5.248,14.911,15.739h-10.357
			c0-5.244-1.656-7.87-4.969-7.87c-3.872,0-5.799,1.799-5.799,5.383c0,2.763,3.657,6.213,10.975,10.354
			C365.257,346.241,368.92,351.354,368.92,357.424z M402.881,371.508h-27.334v-52.188h10.768v43.489h16.566V371.508z
			 M448.858,371.508H437.26l-2.899-11.598h-14.91l-2.897,11.598h-10.772l14.499-52.188h14.494L448.858,371.508z M432.289,352.04
			l-5.382-22.366l-4.972,22.366H432.289z M492.76,371.508h-14.495l-14.083-38.106v38.106h-10.354v-52.188h14.912l13.668,36.034
			v-36.034h10.353V371.508z M535.833,344.998c0,17.675-5.664,26.51-16.979,26.51h-17.808v-52.188h18.221
			C530.308,319.319,535.833,327.881,535.833,344.998z M525.067,345.413c0-11.87-2.486-17.809-7.455-17.809h-5.798v36.034h5.383
			C522.438,363.638,525.067,357.567,525.067,345.413z"/>
	</g>
	<rect x="558.955" y="319.315" fill="none" width="715.277" height="200"/>
	<text transform="matrix(1 0 0 1 558.9546 370.4346)" font-family="'Univers-Condensed'" font-size="72">STUDENT PROJECTS</text>
</g>
</svg>
