<?xml version="1.0" encoding="UTF-8" standalone="no"?>
<svg width="50px" height="50px" viewBox="0 0 50 50" version="1.1" xmlns="http://www.w3.org/2000/svg" xmlns:xlink="http://www.w3.org/1999/xlink" xmlns:sketch="http://www.bohemiancoding.com/sketch/ns">
    <!-- Generator: Sketch 3.5.1 (25234) - http://www.bohemiancoding.com/sketch -->
    <title>instagram_L</title>
    <desc>Created with Sketch.</desc>
    <defs></defs>
    <g id="testtt" stroke="none" stroke-width="1" fill="none" fill-rule="evenodd" sketch:type="MSPage">
        <path d="M31.7083197,19 L40,19 L40,13.9999433 C40,11.7908356 38.2132053,10 36.0007252,10 L13.9992748,10 C13.6542337,10 13.3193982,10.0439179 13,10.1264204 L13,10 L14,10 L14,16 L13,16 L13,10.1264204 C11.2748096,10.5720476 10,12.1433748 10,13.9999433 L10,19 L18.2916803,19 C19.9396419,17.1587519 22.3345004,16 25,16 C27.6654996,16 30.0603581,17.1587519 31.7083197,19 Z M33.0644804,21 L40,21 L40,34.0013241 C40,37.318062 37.3142256,40 34.001155,40 L15.998845,40 C12.6887015,40 10,37.3143013 10,34.0013241 L10,21 L16.9355196,21 C16.3367061,22.2049589 16,23.5631585 16,25 C16,29.970563 20.029437,34 25,34 C29.970563,34 34,29.970563 34,25 C34,23.5631585 33.6632939,22.2049589 33.0644804,21 Z M25,50 C38.8071194,50 50,38.8071194 50,25 C50,11.1928806 38.8071194,0 25,0 C11.1928806,0 0,11.1928806 0,25 C0,38.8071194 11.1928806,50 25,50 Z M25,48 C37.7025499,48 48,37.7025499 48,25 C48,12.2974501 37.7025499,2 25,2 C12.2974501,2 2,12.2974501 2,25 C2,37.7025499 12.2974501,48 25,48 Z M17,10 L17,16 L18,16 L18,10 L17,10 Z M15,10 L15,16 L16,16 L16,10 L15,10 Z M32.9998075,12 C32.4476291,12 32,12.4437166 32,12.9998075 L32,16.0001925 C32,16.5523709 32.4437166,17 32.9998075,17 L36.0001925,17 C36.5523709,17 37,16.5562834 37,16.0001925 L37,12.9998075 C37,12.4476291 36.5562834,12 36.0001925,12 L32.9998075,12 Z M25,32 C28.8659934,32 32,28.8659934 32,25 C32,21.1340066 28.8659934,18 25,18 C21.1340066,18 18,21.1340066 18,25 C18,28.8659934 21.1340066,32 25,32 Z" id="instagram_L" fill="#464646" sketch:type="MSShapeGroup"></path>
    </g>
</svg>