<?xml version="1.0" encoding="UTF-8" standalone="no"?>
<svg width="50px" height="50px" viewBox="0 0 50 50" version="1.1" xmlns="http://www.w3.org/2000/svg" xmlns:xlink="http://www.w3.org/1999/xlink" xmlns:sketch="http://www.bohemiancoding.com/sketch/ns">
    <!-- Generator: Sketch 3.5.1 (25234) - http://www.bohemiancoding.com/sketch -->
    <title>linkedin_L</title>
    <desc>Created with Sketch.</desc>
    <defs></defs>
    <g id="testtt" stroke="none" stroke-width="1" fill="none" fill-rule="evenodd" sketch:type="MSPage">
        <path d="M25,50 C38.8071194,50 50,38.8071194 50,25 C50,11.1928806 38.8071194,0 25,0 C11.1928806,0 0,11.1928806 0,25 C0,38.8071194 11.1928806,50 25,50 Z M25,48 C37.7025499,48 48,37.7025499 48,25 C48,12.2974501 37.7025499,2 25,2 C12.2974501,2 2,12.2974501 2,25 C2,37.7025499 12.2974501,48 25,48 Z M17.8567043,37 L17.8567043,18.1923077 L12.1954194,18.1923077 L12.1954194,37 L17.8567043,37 Z M15.0260618,10 C13.2010424,10 12.0091929,11.2692308 12.0464382,12.9615385 C12.0091929,14.5769231 13.2010424,15.8846154 14.9888165,15.8846154 C16.8510813,15.8846154 18.0429308,14.5769231 18.0429308,12.9615385 C18.0056855,11.2692308 16.8510813,10 15.0260618,10 Z M22.4006304,37 L28.0619153,37 L28.0619153,26.1538462 C28.0619153,25.6153846 28.1364059,25.0384615 28.285387,24.6923077 C28.65784,23.6153846 29.5889724,22.5 31.1532748,22.5 C33.2017661,22.5 34.0211626,24.1538462 34.0211626,26.5769231 L34.0211626,37 L39.6824475,37 L39.6824475,25.8461538 C39.6824475,20.3076923 36.8890503,17.7692308 33.1645208,17.7692308 C30.1476518,17.7692308 28.285387,19.5769231 27.5404811,20.7692308 L27.4287452,20.7692308 L27.1680282,18.1923077 L22.2516492,18.1923077 C22.3261398,19.8461538 22.4006304,21.8461538 22.4006304,24.1923077 L22.4006304,37 Z" id="linkedin_L" fill="#464646" sketch:type="MSShapeGroup"></path>
    </g>
</svg>